<?xml version="1.0" encoding="utf-8"?>
<!-- Generator: Adobe Illustrator 26.1.0, SVG Export Plug-In . SVG Version: 6.00 Build 0)  -->
<svg version="1.1" id="Layer_1" xmlns="http://www.w3.org/2000/svg" xmlns:xlink="http://www.w3.org/1999/xlink" x="0px" y="0px"
	 viewBox="0 0 800 800" style="enable-background:new 0 0 800 800;" xml:space="preserve">
<style type="text/css">
	.st0{stroke:#FFFFFF;stroke-width:25;stroke-miterlimit:10;}
</style>
<path class="st0" d="M507.8,305.1l41.3-41.3c39.2,32.5,64.2,81.5,64.2,136.3c0,55.6-25.8,105.2-65.9,137.7L506,496.2
	c29.8-21.6,49.3-56.7,49.3-96.2C555.2,361.2,536.6,326.8,507.8,305.1z M679.9,400c0,74.1-33.2,140.6-85.5,185.5l41.2,41.2
	C698.3,571.2,738,490.1,738,400c0-89.3-39-169.8-100.8-225.2L596.1,216C647.4,260.8,679.9,326.7,679.9,400z M442.2,104.3l-236.6,169
	H62v253.5h143.6l236.6,169V104.3z"/>
</svg>
